<?xml version="1.0" encoding="utf-8"?>
<!-- Generator: Adobe Illustrator 21.1.0, SVG Export Plug-In . SVG Version: 6.00 Build 0)  -->
<svg version="1.1" id="Layer_1" xmlns="http://www.w3.org/2000/svg" xmlns:xlink="http://www.w3.org/1999/xlink" x="0px" y="0px"
	 viewBox="0 0 512 512" style="enable-background:new 0 0 512 512;" xml:space="preserve">
<style type="text/css">
	.st0{fill:#16A388;}
	.st1{fill:#1ABC9C;}
	.st2{fill:#2AD3B3;}
	.st3{fill:#1D8772;}
	.st4{opacity:0.31;}
	.st5{fill:#218E64;}
	.st6{fill:#F9F9F9;}
	.st7{opacity:0.13;}
	.st8{fill:#FFFFFF;}
	.st9{fill:#FCCC00;}
</style>
<g>
	<rect x="62.8" y="49" class="st0" width="381.4" height="102.4"/>
	<path class="st1" d="M425.5,444h-344C67.4,444,56,431.7,56,416.6V151.4h395v265.2C451,431.7,439.6,444,425.5,444z"/>
	<polyline class="st2" points="389.7,92.9 430.6,49 444.2,49 444.2,151.4 430.6,151.4 389.7,92.9 	"/>
	<polygon class="st3" points="389.7,92.9 389.7,151.4 430.6,151.4 	"/>
	<polyline class="st2" points="117.3,92.9 76.4,49 62.8,49 62.8,151.4 76.4,151.4 117.3,92.9 	"/>
	<polygon class="st3" points="117.3,92.9 117.3,151.4 76.4,151.4 	"/>
	<ellipse class="st3" cx="171.8" cy="209.9" rx="20.4" ry="21.9"/>
	<ellipse class="st3" cx="335.2" cy="209.9" rx="20.4" ry="21.9"/>
	<g>
		<g class="st4">
			<path class="st5" d="M254.5,349.9c-48.8,0-88.5-42.7-88.5-95.1v-43.9c0-4,3.1-7.3,6.8-7.3s6.8,3.3,6.8,7.3v43.9
				c0,44.4,33.6,80.5,74.9,80.5s74.9-36.1,74.9-80.5v-43.9c0-4,3.1-7.3,6.8-7.3c3.8,0,6.8,3.3,6.8,7.3v43.9
				C343,307.2,303.3,349.9,254.5,349.9z"/>
		</g>
		<g>
			<path class="st6" d="M253.5,348.9c-48.8,0-88.5-42.7-88.5-95.1v-43.9c0-4,3.1-7.3,6.8-7.3s6.8,3.3,6.8,7.3v43.9
				c0,44.4,33.6,80.5,74.9,80.5s74.9-36.1,74.9-80.5v-43.9c0-4,3.1-7.3,6.8-7.3c3.8,0,6.8,3.3,6.8,7.3v43.9
				C342,306.2,302.3,348.9,253.5,348.9z"/>
		</g>
	</g>
</g>
<g>
	<g class="st7">
		<circle cx="256.6" cy="286.4" r="41.1"/>
	</g>
	<g>
		<circle class="st8" cx="253.6" cy="285.4" r="41.1"/>
	</g>
</g>
<g>
	<g class="st7">
		<circle cx="254.6" cy="285.4" r="32.6"/>
	</g>
	<g>
		<circle class="st9" cx="253.6" cy="285.4" r="32.6"/>
	</g>
</g>
</svg>
